<?xml version="1.0" encoding="UTF-8"?>
<svg fill="#FFFFFF" id="Layer_1" data-name="Layer 1" xmlns="http://www.w3.org/2000/svg" viewBox="0 0 327.66 377.5">
  <polygon points="122.93 231.89 104.37 271.71 66.36 353.22 21.85 369.51 0 377.5 6.97 362.57 6.86 362.52 67.76 231.89 122.93 231.89"/>
  <polygon points="176.06 .07 98.3 166.82 74.99 216.82 74.8 216.82 98.11 166.82 175.9 0 176.06 .07"/>
  <polygon points="98.3 166.82 74.99 216.82 74.8 216.82 98.11 166.82 98.3 166.82"/>
  <polygon points="327.66 216.82 261.99 216.82 225.54 294.98 159 319.32 206.81 216.82 74.99 216.82 98.3 166.82 176.06 .07 176.09 0 231.25 0 153.48 166.82 304.34 166.82 327.66 216.82"/>
  <polygon points="104.49 271.77 66.54 353.16 66.36 353.22 104.37 271.71 104.49 271.77"/>
</svg>